{"title":"Crooked.House.2017.720p.BRRip.AAC.ESubs.LLG","magnet":"magnet:?xt=urn:btih:08e1ec29a6f1836ce905e415ec4a7c715b0584ac&dn=Crooked.House.2017.720p.BRRip.AAC.ESubs.LLG&tr=udp%3A%2F%2Ftracker.leechers-paradise.org%3A6969&tr=udp%3A%2F%2Fzer0day.ch%3A1337&tr=udp%3A%2F%2Fopen.demonii.com%3A1337&tr=udp%3A%2F%2Ftracker.coppersurfer.tk%3A6969&tr=udp%3A%2F%2Fexodus.desync.com%3A6969","uploader":"LifeLongg","categoryP":"video","categoryS":"hd___movies","size":"1113619397","seeders":"24","leechers":"17","description":"******************************Screenshots:********************\r\n <a href=\"\nhttp://picserver4u.com/movies/0431.html\" rel=\"nofollow\" target=\"_NEW\">\nhttp://picserver4u.com/movies/0431.html</a>\r\n <a href=\"\nhttp://picserver4u.com/movies/0432.html\" rel=\"nofollow\" target=\"_NEW\">\nhttp://picserver4u.com/movies/0432.html</a>\r\n <a href=\"\nhttp://picserver4u.com/movies/0433.html\" rel=\"nofollow\" target=\"_NEW\">\nhttp://picserver4u.com/movies/0433.html</a>\r\n <a href=\"\nhttp://picserver4u.com/movies/0434.html\" rel=\"nofollow\" target=\"_NEW\">\nhttp://picserver4u.com/movies/0434.html</a>\r\n <a href=\"\nhttp://picserver4u.com/movies/0435.html\" rel=\"nofollow\" target=\"_NEW\">\nhttp://picserver4u.com/movies/0435.html</a>\r\n\r\n**************************************************************\r\n\r\nComplete name                            : Crooked.House.2017.720p.BRRip.AAC.LLG.mp4\r\nFormat                                   : MPEG-4\r\nFormat profile                           : Base Media\r\nCodec ID                                 : isom (isom/iso2/avc1/mp41)\r\nFile size                                : 1.02 GiB\r\nDuration                                 : 1 h 55 min\r\nOverall bit rate                         : 1 270 kb/s\r\nWriting application                      : Lavf57.56.101\r\n\r\nVideo\r\nID                                       : 1\r\nFormat                                   : AVC\r\nFormat/Info                              : Advanced Video Codec\r\nFormat profile                           : <a href=\"/cdn-cgi/l/email-protection\" class=\"__cf_email__\" data-cfemail=\"fcb4959b94bcb0cfd2cd\">[email&#xA0;protected]</a>\r\nFormat settings                          : CABAC / 4 Ref Frames\r\nFormat settings, CABAC                   : Yes\r\nFormat settings, RefFrames               : 4 frames\r\nCodec ID                                 : avc1\r\nCodec ID/Info                            : Advanced Video Coding\r\nDuration                                 : 1 h 55 min\r\nBit rate                                 : 1 200 kb/s\r\nWidth                                    : 1 280 pixels\r\nHeight                                   : 536 pixels\r\nDisplay aspect ratio                     : 2.40:1\r\nFrame rate mode                          : Constant\r\nFrame rate                               : 23.976 (23976/1000) FPS\r\nColor space                              : YUV\r\nChroma subsampling                       : 4:2:0\r\nBit depth                                : 8 bits\r\nScan type                                : Progressive\r\nBits/(Pixel*Frame)                       : 0.073\r\nStream size                              : 988 MiB (94%)\r\n\r\nAudio\r\nID                                       : 2\r\nFormat                                   : AAC\r\nFormat/Info                              : Advanced Audio Codec\r\nFormat profile                           : LC\r\nCodec ID                                 : mp4a-40-2\r\nDuration                                 : 1 h 55 min\r\nBit rate mode                            : Constant\r\nBit rate                                 : 64.8 kb/s\r\nChannel(s)                               : 2 channels\r\nChannel positions                        : Front: L R\r\nSampling rate                            : 48.0 kHz\r\nFrame rate                               : 46.875 FPS (1024 SPF)\r\nCompression mode                         : Lossy\r\nStream size                              : 53.3 MiB (5%)\r\nLanguage                                 : English\r\nDefault                                  : Yes\r\nAlternate group                          : 1","last_updated":"2018-01-28T12:09:14.706Z","parsed":{"xt":"urn:btih:08e1ec29a6f1836ce905e415ec4a7c715b0584ac","dn":"Crooked.House.2017.720p.BRRip.AAC.ESubs.LLG","tr":["udp://exodus.desync.com:6969","udp://open.demonii.com:1337","udp://tracker.coppersurfer.tk:6969","udp://tracker.leechers-paradise.org:6969","udp://zer0day.ch:1337"],"infoHash":"08e1ec29a6f1836ce905e415ec4a7c715b0584ac","infoHashBuffer":{"type":"Buffer","data":[8,225,236,41,166,241,131,108,233,5,228,21,236,74,124,113,91,5,132,172]},"name":"Crooked.House.2017.720p.BRRip.AAC.ESubs.LLG","announce":["udp://exodus.desync.com:6969","udp://open.demonii.com:1337","udp://tracker.coppersurfer.tk:6969","udp://tracker.leechers-paradise.org:6969","udp://zer0day.ch:1337"],"urlList":[]}}